<?xml version="1.0" encoding="UTF-8" standalone="no"?>
<!-- Created with Inkscape (http://www.inkscape.org/) -->

<svg
   xmlns:dc="http://purl.org/dc/elements/1.1/"
   xmlns:cc="http://creativecommons.org/ns#"
   xmlns:rdf="http://www.w3.org/1999/02/22-rdf-syntax-ns#"
   xmlns:svg="http://www.w3.org/2000/svg"
   xmlns="http://www.w3.org/2000/svg"
   xmlns:sodipodi="http://sodipodi.sourceforge.net/DTD/sodipodi-0.dtd"
   xmlns:inkscape="http://www.inkscape.org/namespaces/inkscape"
   width="277.46109"
   height="322.97217"
   id="svg6527"
   sodipodi:version="0.32"
   inkscape:version="0.48.2 r9819"
   version="1.0"
   sodipodi:docname="Arizona GOP.svg"
   inkscape:output_extension="org.inkscape.output.svg.inkscape">
  <defs
     id="defs6529">
    <inkscape:perspective
       sodipodi:type="inkscape:persp3d"
       inkscape:vp_x="0 : 526.18109 : 1"
       inkscape:vp_y="0 : 1000 : 0"
       inkscape:vp_z="744.09448 : 526.18109 : 1"
       inkscape:persp3d-origin="372.04724 : 350.78739 : 1"
       id="perspective6535" />
  </defs>
  <sodipodi:namedview
     id="base"
     pagecolor="#ffffff"
     bordercolor="#666666"
     borderopacity="1.0"
     gridtolerance="10000"
     guidetolerance="10"
     objecttolerance="10"
     inkscape:pageopacity="0.0"
     inkscape:pageshadow="2"
     inkscape:zoom="0.92124352"
     inkscape:cx="95.793191"
     inkscape:cy="178.69224"
     inkscape:document-units="px"
     inkscape:current-layer="layer1"
     showgrid="false"
     inkscape:window-width="1024"
     inkscape:window-height="721"
     inkscape:window-x="-4"
     inkscape:window-y="-4"
     inkscape:window-maximized="0" />
  <metadata
     id="metadata6532">
    <rdf:RDF>
      <cc:Work
         rdf:about="">
        <dc:format>image/svg+xml</dc:format>
        <dc:type
           rdf:resource="http://purl.org/dc/dcmitype/StillImage" />
      </cc:Work>
    </rdf:RDF>
  </metadata>
  <g
     inkscape:label="Layer 1"
     inkscape:groupmode="layer"
     id="layer1"
     transform="translate(-310.27179,-394.47419)">
    <path
       style="font-size:12px;fill:#d40000;fill-opacity:1;fill-rule:nonzero;stroke:#ffffff;stroke-width:1;stroke-miterlimit:4;stroke-dasharray:none"
       d="M 390.15622,403.69112 L 433.61769,411.77959 L 447.19238,414.18661 L 443.46733,422.27133 L 440.94766,428.63622 L 440.77868,429.09435 L 438.78097,435.35409 L 438.67958,435.98119 L 438.67958,436.7585 L 439.1377,438.18168 L 439.55827,438.86134 L 439.01754,442.01939 L 438.55941,442.85302 L 437.32399,444.30624 L 436.83207,444.71553 L 436.25753,444.89954 L 427.21902,447.59196 L 425.54424,447.94869 L 423.85071,448.13643 L 423.53151,448.03129 L 421.26344,448.32043 L 417.1516,449.89383 L 411.29366,452.50361 L 408.58623,458.03487 L 404.15147,479.42766 L 393.49074,537.41386 L 392.6083,538.17238 L 392.28912,538.32258 L 391.86479,538.39394 L 377.4978,539.19001 L 361.91039,532.183 L 360.04787,528.92735 L 357.89619,526.53159 L 355.42534,523.56882 L 352.92444,513.03952 L 352.78925,511.09064 L 350.09686,506.86239 L 347.96396,501.31236 L 347.93017,501.05702 L 347.99775,500.3811 L 349.2144,494.9963 L 352.83808,488.93933 L 353.19106,487.78651 L 353.39759,486.82145 L 353.44639,485.73998 L 353.71676,479.83321 L 353.66419,478.41004 L 353.31121,475.57118 L 352.80428,469.58179 L 353.27741,461.09903 L 354.32509,447.22396 L 354.817,442.48502 L 354.85081,442.17711 L 355.3765,441.70396 L 355.76329,441.50118 L 360.09667,440.48355 L 362.46989,440.48355 L 364.70042,440.94168 L 369.62711,442.39489 L 370.15282,442.88682 L 371.30189,444.51277 L 371.77502,445.69938 L 371.84262,446.07113 L 371.8614,446.17253 L 371.89519,446.57809 L 372.16556,447.38917 L 373.06303,448.81236 L 373.401,449.16534 L 373.8929,449.54085 L 374.09567,449.58965 L 374.85795,449.67603 L 377.20864,449.7286 L 377.24243,449.70982 L 377.37764,449.63472 L 377.44522,449.58965 L 377.97092,448.99635 L 382.87883,442.36485 L 384.51983,433.85205 L 385.45108,428.97417 L 386.99066,420.18725 L 387.17842,419.21469 L 388.69924,411.23885 L 390.15622,403.69112"
       id="AZ_Mohave"
       inkscape:label="Mohave, AZ" />
    <path
       style="font-size:12px;fill:#cc2f4a;fill-opacity:1;fill-rule:nonzero;stroke:#ffffff;stroke-width:1;stroke-miterlimit:4;stroke-dasharray:none"
       d="M 361.91039,532.183 L 377.4978,539.19001 L 391.86479,538.39394 L 392.28912,538.32258 L 392.6083,538.17238 L 393.49074,537.41386 L 390.66315,552.67833 L 385.18071,582.42995 L 360.4872,577.7774 L 361.28329,573.61299 L 349.03039,571.31111 L 344.96739,592.00921 L 340.87433,591.31827 L 335.05019,590.16545 L 331.52791,589.5759 L 330.87075,589.28675 L 329.00448,587.97997 L 328.15957,585.73069 L 328.12954,585.64809 L 330.51403,570.95813 L 334.57329,569.95552 L 339.4474,564.20271 L 341.02454,558.72028 L 342.17359,552.98249 L 342.39514,551.40911 L 343.42781,547.70282 L 344.56183,545.73891 L 348.20053,540.59442 L 353.19106,538.68307 L 356.61193,537.27867 L 361.68883,534.34969 L 361.7752,534.28211 L 361.91039,532.183"
       id="AZ_La_Paz"
       inkscape:label="La Paz, AZ" />
    <path
       style="font-size:12px;fill:#e27f90;fill-opacity:1;fill-rule:nonzero;stroke:#ffffff;stroke-width:1;stroke-miterlimit:4;stroke-dasharray:none"
       d="M 546.50342,655.30887 L 549.18079,655.66185 L 541.81705,708.22943 L 526.41741,705.99891 L 484.1876,699.80301 L 487.45453,680.78345 L 492.58398,647.38561 L 503.9056,649.14676 L 533.676,653.44634 L 546.50342,655.30887"
       id="AZ_Cochise"
       inkscape:label="Cochise, AZ" />
    <path
       style="font-size:12px;fill:#1666cb;fill-opacity:1;fill-rule:nonzero;stroke:#ffffff;stroke-width:1;stroke-miterlimit:4;stroke-dasharray:none"
       d="M 447.93589,689.51029 L 448.6794,684.94409 L 456.94061,686.26214 L 458.49898,676.4801 L 471.07479,678.20745 L 487.45453,680.78345 L 484.1876,699.80301 L 463.09897,696.53606 L 458.20984,695.40203 L 447.93589,689.51029"
       id="AZ_Santa_Cruz"
       inkscape:label="Santa Cruz, AZ" />
    <path
       style="font-size:12px;fill:#86b6f2;fill-opacity:1;fill-rule:nonzero;stroke:#ffffff;stroke-width:1;stroke-miterlimit:4;stroke-dasharray:none"
       d="M 422.788,632.12491 L 439.2053,634.89617 L 448.20625,636.67609 L 463.4219,639.16195 L 464.75872,639.36098 L 471.10483,640.00687 L 483.69942,641.75297 L 493.24113,643.22496 L 492.58398,647.38561 L 487.45453,680.78345 L 471.07479,678.20745 L 458.49898,676.4801 L 456.94061,686.26214 L 448.6794,684.94409 L 447.93589,689.51029 L 445.99076,688.39878 L 439.81361,684.82393 L 390.9523,656.64568 L 381.17028,651.08063 L 373.3822,646.40554 L 377.47901,624.13031 L 422.788,632.12491"
       id="AZ_Pima"
       inkscape:label="Pima, AZ" />
    <path
       style="font-size:12px;fill:#e27f90;fill-opacity:1;fill-rule:nonzero;stroke:#ffffff;stroke-width:1;stroke-miterlimit:4;stroke-dasharray:none"
       d="M 539.54899,594.11206 L 540.39387,592.41852 L 540.71681,592.14439 L 546.26686,588.94881 L 558.21932,590.571 L 549.18079,655.66185 L 546.50342,655.30887 L 542.68072,649.72129 L 542.76335,649.06414 L 543.64579,647.15281 L 544.18652,644.71198 L 544.18652,642.5115 L 543.27403,638.95917 L 541.08856,634.1151 L 540.48024,634.00245 L 535.58736,621.76458 L 539.54899,594.11206"
       id="AZ_Greenlee"
       inkscape:label="Greenlee, AZ" />
    <path
       style="font-size:12px;fill:#cc2f4a;fill-opacity:1;fill-rule:nonzero;stroke:#ffffff;stroke-width:1;stroke-miterlimit:4;stroke-dasharray:none"
       d="M 523.21431,595.92201 L 525.61758,598.17131 L 529.66556,599.08382 L 533.6272,596.61296 L 539.54899,594.11206 L 535.58736,621.76458 L 540.48024,634.00245 L 541.08856,634.1151 L 543.27403,638.95917 L 544.18652,642.5115 L 544.18652,644.71198 L 543.64579,647.15281 L 542.76335,649.06414 L 542.68072,649.72129 L 546.50342,655.30887 L 533.676,653.44634 L 503.9056,649.14676 L 492.58398,647.38561 L 493.24113,643.22496 L 493.3275,643.23999 L 494.15738,637.90776 L 496.79721,620.46157 L 498.3368,610.54437 L 498.74234,605.85425 L 499.57223,602.29818 L 499.97778,601.65605 L 501.38592,600.92756 L 504.32993,600.01507 L 505.44519,599.86488 L 511.43833,599.20397 L 518.15619,600.18404 L 518.95227,594.83679 L 523.21431,595.92201"
       id="AZ_Graham"
       inkscape:label="Graham, AZ" />
    <path
       style="font-size:12px;fill:#4389e3;fill-opacity:1;fill-rule:nonzero;stroke:#ffffff;stroke-width:1;stroke-miterlimit:4;stroke-dasharray:none"
       d="M 579.7623,435.06871 L 573.07823,483.23157 L 563.5816,551.94984 L 558.21932,590.571 L 546.26686,588.94881 L 540.71681,592.14439 L 540.39387,592.41852 L 539.54899,594.11206 L 533.6272,596.61296 L 529.66556,599.08382 L 525.61758,598.17131 L 523.21431,595.92201 L 524.40092,587.91239 L 525.87292,585.98603 L 529.07226,567.81137 L 534.18296,534.09059 L 537.55126,512.88932 L 539.564,502.32623 L 540.58163,495.35678 L 533.86377,494.35793 L 543.42424,429.90545 L 579.7623,435.06871"
       id="AZ_Apache"
       inkscape:label="Apache, AZ" />
    <path
       style="font-size:12px;fill:#e27f90;fill-opacity:1;fill-rule:nonzero;stroke:#ffffff;stroke-width:1;stroke-miterlimit:4;stroke-dasharray:none"
       d="M 543.42424,429.90545 L 533.86377,494.35793 L 540.58163,495.35678 L 539.564,502.32623 L 537.55126,512.88932 L 534.18296,534.09059 L 529.07226,567.81137 L 525.87292,585.98603 L 524.40092,587.91239 L 523.21431,595.92201 L 518.95227,594.83679 L 521.98264,574.47665 L 492.36243,569.95552 L 514.99065,425.32047 L 524.69007,426.78872 L 530.88223,428.00912 L 543.42424,429.90545"
       id="AZ_Navajo"
       inkscape:label="Navajo, AZ" />
    <path
       style="font-size:12px;fill:#cc2f4a;fill-opacity:1;fill-rule:nonzero;stroke:#ffffff;stroke-width:1;stroke-miterlimit:4;stroke-dasharray:none"
       d="M 494.34513,557.2971 L 492.36243,569.95552 L 521.98264,574.47665 L 518.15619,600.18404 L 511.43833,599.20397 L 505.44519,599.86488 L 504.32993,600.01507 L 501.38592,600.92756 L 499.97778,601.65605 L 499.57223,602.29818 L 498.74234,605.85425 L 498.3368,610.54437 L 497.71344,610.55939 L 490.58628,611.91498 L 486.42188,614.79137 L 486.37306,615.00917 L 486.60963,615.95921 L 486.50825,616.29717 L 484.17258,618.59529 L 483.56424,618.61407 L 483.44409,618.56149 L 478.92295,604.77278 L 478.56997,600.85997 L 477.6725,596.95467 L 476.86139,593.82291 L 473.98123,582.94065 L 472.79838,583.61656 L 471.79953,584.4577 L 465.85898,575.0174 L 465.33701,566.41822 L 465.09668,565.69349 L 464.9953,565.52077 L 464.1842,565.149 L 463.01636,565.27292 L 464.82631,562.44157 L 464.82631,560.02329 L 464.60476,559.19342 L 463.98142,557.97677 L 455.67139,556.57237 L 455.41604,556.11424 L 455.43106,555.99033 L 456.8242,552.42298 L 459.61424,545.6225 L 460.17375,545.39719 L 463.13276,544.52225 L 464.10159,543.84259 L 464.16917,543.775 L 464.38696,542.18659 L 475.62597,545.43098 L 484.1538,551.2589 L 490.60505,556.33204 L 494.34513,557.2971"
       id="AZ_Gila"
       inkscape:label="Gila, AZ" />
    <path
       style="font-size:12px;fill:#e27f90;fill-opacity:1;fill-rule:nonzero;stroke:#ffffff;stroke-width:1;stroke-miterlimit:4;stroke-dasharray:none"
       d="M 476.86139,593.82291 L 477.6725,596.95467 L 478.56997,600.85997 L 478.92295,604.77278 L 483.44409,618.56149 L 483.56424,618.61407 L 484.17258,618.59529 L 486.50825,616.29717 L 486.60963,615.95921 L 486.37306,615.00917 L 486.42188,614.79137 L 490.58628,611.91498 L 497.71344,610.55939 L 498.3368,610.54437 L 496.79721,620.46157 L 494.15738,637.90776 L 493.3275,643.23999 L 493.24113,643.22496 L 483.69942,641.75297 L 471.10483,640.00687 L 464.75872,639.36098 L 463.4219,639.16195 L 448.20625,636.67609 L 439.2053,634.89617 L 422.788,632.12491 L 424.2262,623.79234 L 428.94637,596.68055 L 429.31812,594.58521 L 429.48711,594.66782 L 433.07698,599.10258 L 437.49297,600.21785 L 442.96038,601.18666 L 453.24935,602.82765 L 454.55613,594.49508 L 455.40104,590.33444 L 468.48378,592.53867 L 476.86139,593.82291"
       id="AZ_Pinal"
       inkscape:label="Pinal, AZ" />
    <path
       style="font-size:12px;fill:#f2b3be;fill-opacity:1;fill-rule:nonzero;stroke:#ffffff;stroke-width:1;stroke-miterlimit:4;stroke-dasharray:none"
       d="M 385.18071,582.42995 L 377.47901,624.13031 L 373.3822,646.40554 L 372.70628,645.98497 L 318.24237,613.25178 L 319.58293,607.42762 L 319.69935,607.24363 L 320.05232,607.12347 L 320.74702,607.27743 L 322.47436,605.68527 L 324.11534,603.30078 L 328.36611,603.61998 L 333.98374,600.13524 L 335.74112,597.66438 L 335.74112,597.6456 L 336.09784,596.41018 L 336.48838,593.22585 L 335.28676,590.42081 L 335.17034,590.30063 L 335.05019,590.16545 L 340.87433,591.31827 L 344.96739,592.00921 L 349.03039,571.31111 L 361.28329,573.61299 L 360.4872,577.7774 L 385.18071,582.42995"
       id="AZ_Yuma"
       inkscape:label="Yuma, AZ" />
    <path
       style="font-size:12px;fill:#f2b3be;fill-opacity:1;fill-rule:nonzero;stroke:#ffffff;stroke-width:1;stroke-miterlimit:4;stroke-dasharray:none"
       d="M 390.66315,552.67833 L 413.8321,556.83896 L 431.28205,565.70851 L 432.8742,564.74345 L 435.27746,561.71684 L 435.44644,561.05219 L 437.08742,558.54753 L 437.66195,558.70525 L 453.89147,563.74835 L 463.01636,565.27292 L 464.1842,565.149 L 464.9953,565.52077 L 465.09668,565.69349 L 465.33701,566.41822 L 465.85898,575.0174 L 471.79953,584.4577 L 472.79838,583.61656 L 473.98123,582.94065 L 476.86139,593.82291 L 468.48378,592.53867 L 455.40104,590.33444 L 454.55613,594.49508 L 453.24935,602.82765 L 442.96038,601.18666 L 437.49297,600.21785 L 433.07698,599.10258 L 429.48711,594.66782 L 429.31812,594.58521 L 428.94637,596.68055 L 424.2262,623.79234 L 422.788,632.12491 L 377.47901,624.13031 L 390.66315,552.67833"
       id="AZ_Maricopa"
       inkscape:label="Maricopa, AZ" />
    <path
       style="font-size:12px;fill:#86b6f2;fill-opacity:1;fill-rule:nonzero;stroke:#ffffff;stroke-width:1;stroke-miterlimit:4;stroke-dasharray:none"
       d="M 489.85779,421.37763 L 514.99065,425.32047 L 494.34513,557.2971 L 490.60505,556.33204 L 484.1538,551.2589 L 475.62597,545.43098 L 464.38696,542.18659 L 465.82893,534.24455 L 467.12819,526.32506 L 465.5548,526.05468 L 458.73554,524.85305 L 458.61538,522.95673 L 459.7682,516.27267 L 450.45932,514.95087 L 449.1225,514.83447 L 438.05248,512.97194 L 439.47189,504.5455 L 435.91958,500.48249 L 416.79488,488.43238 L 410.12958,481.59434 L 406.82884,479.81444 L 405.3193,479.47648 L 404.71098,479.39387 L 404.15147,479.42766 L 408.58623,458.03487 L 411.29366,452.50361 L 417.1516,449.89383 L 421.26344,448.32043 L 423.53151,448.03129 L 423.85071,448.13643 L 425.54424,447.94869 L 427.21902,447.59196 L 436.25753,444.89954 L 436.83207,444.71553 L 437.32399,444.30624 L 438.55941,442.85302 L 439.01754,442.01939 L 439.55827,438.86134 L 439.1377,438.18168 L 438.67958,436.7585 L 438.67958,435.98119 L 438.78097,435.35409 L 440.77868,429.09435 L 440.94766,428.63622 L 443.46733,422.27133 L 447.19238,414.18661 L 489.85779,421.37763"
       id="AZ_Coconino"
       inkscape:label="Coconino, AZ" />
    <path
       style="font-size:12px;fill:#cc2f4a;fill-opacity:1;fill-rule:nonzero;stroke:#ffffff;stroke-width:1;stroke-miterlimit:4;stroke-dasharray:none"
       d="M 404.15147,479.42766 L 404.71098,479.39387 L 405.3193,479.47648 L 406.82884,479.81444 L 410.12958,481.59434 L 416.79488,488.43238 L 435.91958,500.48249 L 439.47189,504.5455 L 438.05248,512.97194 L 449.1225,514.83447 L 450.45932,514.95087 L 459.7682,516.27267 L 458.61538,522.95673 L 458.73554,524.85305 L 465.5548,526.05468 L 467.12819,526.32506 L 465.82893,534.24455 L 464.38696,542.18659 L 464.16917,543.775 L 464.10159,543.84259 L 463.13276,544.52225 L 460.17375,545.39719 L 459.61424,545.6225 L 456.8242,552.42298 L 455.43106,555.99033 L 455.41604,556.11424 L 455.67139,556.57237 L 463.98142,557.97677 L 464.60476,559.19342 L 464.82631,560.02329 L 464.82631,562.44157 L 463.01636,565.27292 L 453.89147,563.74835 L 437.66195,558.70525 L 437.08742,558.54753 L 435.44644,561.05219 L 435.27746,561.71684 L 432.8742,564.74345 L 431.28205,565.70851 L 413.8321,556.83896 L 390.66315,552.67833 L 393.49074,537.41386 L 404.15147,479.42766"
       id="AZ_Yavapai"
       inkscape:label="Yavapai, AZ" />
  </g>
</svg>